<?xml version="1.0" standalone="no"?>
<!DOCTYPE svg PUBLIC "-//W3C//DTD SVG 20010904//EN"
 "http://www.w3.org/TR/2001/REC-SVG-20010904/DTD/svg10.dtd">
<svg version="1.0" xmlns="http://www.w3.org/2000/svg"
 width="512.000000pt" height="512.000000pt" viewBox="0 0 512.000000 512.000000"
 preserveAspectRatio="xMidYMid meet">
<metadata>
Created by potrace 1.14, written by Peter Selinger 2001-2017
</metadata>
<g transform="translate(0.000000,512.000000) scale(0.100000,-0.100000)"
fill="#000000" stroke="none">
<path d="M0 2560 l0 -2560 120 0 c100 0 120 3 120 15 0 11 11 15 40 15 36 0
40 3 40 25 0 23 4 25 40 25 l40 0 0 40 0 40 40 0 c30 0 40 -4 40 -16 0 -14 2
-15 17 -3 15 13 15 14 0 17 -12 3 -17 14 -17 43 0 39 0 39 40 39 l40 0 0 40 0
40 40 0 40 0 0 40 0 40 40 0 c36 0 40 3 40 25 0 23 4 25 40 25 35 0 40 3 40
23 0 42 12 67 31 67 11 0 19 5 19 10 0 6 7 10 15 10 9 0 15 9 15 25 0 23 4 25
40 25 36 0 40 3 40 24 0 24 51 86 71 86 5 0 9 18 9 40 l0 40 40 0 c22 0 40 4
40 9 0 20 62 71 86 71 21 0 24 4 24 40 0 36 3 40 25 40 23 0 25 4 25 40 l0 40
80 0 80 0 0 54 c0 53 1 55 35 67 38 14 43 23 21 36 -8 4 -16 20 -18 35 -4 28
-18 51 -18 30 0 -7 -4 -12 -10 -12 -5 0 -10 7 -10 15 0 8 5 15 10 15 6 0 10 9
10 20 0 11 5 20 10 20 13 0 32 -48 25 -60 -3 -5 2 -15 10 -23 8 -9 15 -31 15
-49 0 -19 4 -38 9 -43 11 -12 30 -120 41 -240 19 -198 -18 -468 -88 -645 -14
-36 -47 -108 -74 -160 -26 -52 -48 -96 -48 -97 0 -2 846 -3 1880 -3 l1880 0 0
1452 0 1453 -45 -49 c-25 -26 -43 -52 -40 -57 4 -5 0 -6 -8 -3 -9 3 -32 -11
-56 -35 -49 -48 -146 -121 -161 -121 -5 0 -10 -4 -10 -8 0 -5 -11 -14 -25 -20
-14 -7 -31 -17 -38 -23 -19 -17 -78 -51 -132 -76 -86 -41 -109 -51 -135 -59
-14 -3 -43 -15 -65 -25 -70 -31 -244 -73 -374 -90 -175 -23 -504 -7 -656 32
-142 37 -437 152 -455 178 -3 4 -31 22 -62 39 -31 18 -58 37 -60 43 -2 6 -19
11 -37 12 -19 1 -36 8 -37 15 -1 7 0 8 3 2 6 -12 23 -13 23 -2 0 5 -12 14 -26
21 -28 12 -42 24 -153 130 -55 53 -77 68 -84 59 -6 -9 -7 -8 -4 3 4 11 -18 47
-55 95 -83 108 -137 194 -185 294 -40 84 -77 176 -78 194 0 5 -14 14 -30 19
-16 5 -37 15 -45 21 -8 7 -33 18 -55 25 -22 7 -64 25 -93 38 -29 14 -56 22
-59 19 -3 -3 -13 3 -22 13 -9 10 -25 20 -36 22 -11 2 -25 15 -31 27 -6 13 -26
31 -43 40 -17 9 -57 31 -89 47 -31 17 -61 33 -67 38 -24 18 -198 143 -213 152
-53 33 -257 221 -332 305 -36 40 -72 80 -80 88 -8 9 -45 59 -83 111 -37 53
-75 106 -84 119 -9 13 -22 32 -27 42 -6 10 -38 65 -71 122 -61 104 -118 229
-160 348 l-23 65 -261 3 -261 2 0 -2560z m57 804 c-3 -3 -12 -4 -19 -1 -8 3
-5 6 6 6 11 1 17 -2 13 -5z m1300 -160 c-3 -3 -12 -4 -19 -1 -8 3 -5 6 6 6 11
1 17 -2 13 -5z m913 -50 c0 -8 -4 -12 -10 -9 -5 3 -10 10 -10 16 0 5 5 9 10 9
6 0 10 -7 10 -16z m-1187 -31 c-7 -2 -21 -2 -30 0 -10 3 -4 5 12 5 17 0 24 -2
18 -5z m1287 -87 c0 -3 -4 -8 -10 -11 -5 -3 -10 -1 -10 4 0 6 5 11 10 11 6 0
10 -2 10 -4z m177 -232 c-3 -3 -12 -4 -19 -1 -8 3 -5 6 6 6 11 1 17 -2 13 -5z
m2413 -105 c0 -5 -4 -9 -10 -9 -5 0 -10 7 -10 16 0 8 5 12 10 9 6 -3 10 -10
10 -16z m-2104 -136 c-6 -6 -36 9 -36 18 0 5 9 4 20 -3 10 -7 18 -14 16 -15z
m1924 17 c0 -5 -5 -10 -11 -10 -5 0 -7 5 -4 10 3 6 8 10 11 10 2 0 4 -4 4 -10z
m-1873 -96 c-3 -3 -12 -4 -19 -1 -8 3 -5 6 6 6 11 1 17 -2 13 -5z m1540 -70
c-3 -3 -12 -4 -19 -1 -8 3 -5 6 6 6 11 1 17 -2 13 -5z m46 -11 c-7 -2 -19 -2
-25 0 -7 3 -2 5 12 5 14 0 19 -2 13 -5z m-180 -70 c-7 -2 -19 -2 -25 0 -7 3
-2 5 12 5 14 0 19 -2 13 -5z m-3273 -263 c0 -5 -5 -10 -11 -10 -5 0 -7 5 -4
10 3 6 8 10 11 10 2 0 4 -4 4 -10z m420 -720 c0 -5 -4 -10 -10 -10 -5 0 -10 5
-10 10 0 6 5 10 10 10 6 0 10 -4 10 -10z m-100 -215 c0 -11 -11 -15 -40 -15
-29 0 -40 4 -40 15 0 11 11 15 40 15 29 0 40 -4 40 -15z m-480 -400 c0 -8 -7
-15 -16 -15 -14 0 -14 3 -4 15 7 8 14 15 16 15 2 0 4 -7 4 -15z m-80 -80 c0
-8 -7 -15 -16 -15 -14 0 -14 3 -4 15 7 8 14 15 16 15 2 0 4 -7 4 -15z m-80
-80 c0 -8 -7 -15 -16 -15 -14 0 -14 3 -4 15 7 8 14 15 16 15 2 0 4 -7 4 -15z
m-80 -80 c0 -8 -7 -15 -16 -15 -14 0 -14 3 -4 15 7 8 14 15 16 15 2 0 4 -7 4
-15z m-160 -160 c0 -8 -7 -15 -16 -15 -14 0 -14 3 -4 15 7 8 14 15 16 15 2 0
4 -7 4 -15z m1026 -142 c-11 -11 -17 4 -9 23 7 18 8 18 11 1 2 -10 1 -21 -2
-24z"/>
<path d="M960 550 c0 -5 5 -10 10 -10 6 0 10 5 10 10 0 6 -4 10 -10 10 -5 0
-10 -4 -10 -10z"/>
</g>
</svg>
